<?xml version="1.0" encoding="UTF-8" standalone="no"?>
<!-- Generator: Adobe Illustrator 27.2.0, SVG Export Plug-In . SVG Version: 6.00 Build 0)  -->

<svg
   version="1.1"
   id="Layer_1"
   x="0px"
   y="0px"
   viewBox="0 0 425.99 370.12"
   style="enable-background:new 0 0 425.99 370.12;"
   xml:space="preserve"
   sodipodi:docname="motile.svg"
   inkscape:version="1.2.2 (b0a84865, 2022-12-01)"
   xmlns:inkscape="http://www.inkscape.org/namespaces/inkscape"
   xmlns:sodipodi="http://sodipodi.sourceforge.net/DTD/sodipodi-0.dtd"
   xmlns:xlink="http://www.w3.org/1999/xlink"
   xmlns="http://www.w3.org/2000/svg"
   xmlns:svg="http://www.w3.org/2000/svg"><defs
   id="defs172"><marker
   style="overflow:visible"
   id="Arrow2"
   refX="5"
   refY="0"
   orient="auto-start-reverse"
   inkscape:stockid="Arrow2"
   markerWidth="7.6999998"
   markerHeight="5.5999999"
   viewBox="0 0 7.7 5.6"
   inkscape:isstock="true"
   inkscape:collect="always"
   preserveAspectRatio="xMidYMid"><path
     transform="scale(0.7)"
     d="M -2,-4 9,0 -2,4 c 2,-2.33 2,-5.66 0,-8 z"
     style="fill:context-stroke;fill-rule:evenodd;stroke:none"
     id="arrow2L" /></marker>
	<defs
   id="defs5">
		<polygon
   id="SVGID_1_"
   points="242.32,99.06 153.89,20.1 41.3,57.19 17.13,173.25 105.55,252.22 219.34,209.42   " />
	</defs>
	
	

		
		
		
		
		
		
		
		
		
		
		
		
		
		
		
		
		
	<clipPath
   clipPathUnits="userSpaceOnUse"
   id="clipPath4465"><g
     id="g4469"><use
       xlink:href="#SVGID_1_"
       style="overflow:visible"
       id="use4467" /></g></clipPath><clipPath
   clipPathUnits="userSpaceOnUse"
   id="clipPath4471"><g
     id="g4475"><use
       xlink:href="#SVGID_1_"
       style="overflow:visible"
       id="use4473" /></g></clipPath><clipPath
   clipPathUnits="userSpaceOnUse"
   id="clipPath4477"><g
     id="g4481"><use
       xlink:href="#SVGID_1_"
       style="overflow:visible"
       id="use4479" /></g></clipPath><clipPath
   clipPathUnits="userSpaceOnUse"
   id="clipPath4483"><g
     id="g4487"><use
       xlink:href="#SVGID_1_"
       style="overflow:visible"
       id="use4485" /></g></clipPath><clipPath
   clipPathUnits="userSpaceOnUse"
   id="clipPath4489"><g
     id="g4493"><use
       xlink:href="#SVGID_1_"
       style="overflow:visible"
       id="use4491" /></g></clipPath><clipPath
   clipPathUnits="userSpaceOnUse"
   id="clipPath4495"><g
     id="g4499"><use
       xlink:href="#SVGID_1_"
       style="overflow:visible"
       id="use4497" /></g></clipPath><clipPath
   clipPathUnits="userSpaceOnUse"
   id="clipPath4501"><g
     id="g4505"><use
       xlink:href="#SVGID_1_"
       style="overflow:visible"
       id="use4503" /></g></clipPath><clipPath
   clipPathUnits="userSpaceOnUse"
   id="clipPath4507"><g
     id="g4511"><use
       xlink:href="#SVGID_1_"
       style="overflow:visible"
       id="use4509" /></g></clipPath><clipPath
   clipPathUnits="userSpaceOnUse"
   id="clipPath4513"><g
     id="g4517"><use
       xlink:href="#SVGID_1_"
       style="overflow:visible"
       id="use4515" /></g></clipPath><clipPath
   clipPathUnits="userSpaceOnUse"
   id="clipPath4519"><g
     id="g4523"><use
       xlink:href="#SVGID_1_"
       style="overflow:visible"
       id="use4521" /></g></clipPath><clipPath
   clipPathUnits="userSpaceOnUse"
   id="clipPath4525"><g
     id="g4529"><use
       xlink:href="#SVGID_1_"
       style="overflow:visible"
       id="use4527" /></g></clipPath><clipPath
   clipPathUnits="userSpaceOnUse"
   id="clipPath4531"><g
     id="g4535"><use
       xlink:href="#SVGID_1_"
       style="overflow:visible"
       id="use4533" /></g></clipPath><clipPath
   clipPathUnits="userSpaceOnUse"
   id="clipPath4537"><g
     id="g4541"><use
       xlink:href="#SVGID_1_"
       style="overflow:visible"
       id="use4539" /></g></clipPath><clipPath
   clipPathUnits="userSpaceOnUse"
   id="clipPath4543"><g
     id="g4547"><use
       xlink:href="#SVGID_1_"
       style="overflow:visible"
       id="use4545" /></g></clipPath><clipPath
   clipPathUnits="userSpaceOnUse"
   id="clipPath4549"><g
     id="g4553"><use
       xlink:href="#SVGID_1_"
       style="overflow:visible"
       id="use4551" /></g></clipPath><clipPath
   clipPathUnits="userSpaceOnUse"
   id="clipPath4555"><g
     id="g4559"><use
       xlink:href="#SVGID_1_"
       style="overflow:visible"
       id="use4557" /></g></clipPath><clipPath
   clipPathUnits="userSpaceOnUse"
   id="clipPath4561"><g
     id="g4565"><use
       xlink:href="#SVGID_1_"
       style="overflow:visible"
       id="use4563" /></g></clipPath></defs><sodipodi:namedview
   id="namedview170"
   pagecolor="#ffffff"
   bordercolor="#000000"
   borderopacity="0.25"
   inkscape:showpageshadow="2"
   inkscape:pageopacity="0.0"
   inkscape:pagecheckerboard="0"
   inkscape:deskcolor="#d1d1d1"
   showgrid="false"
   inkscape:zoom="1.3211085"
   inkscape:cx="145.71097"
   inkscape:cy="197.56136"
   inkscape:window-width="1512"
   inkscape:window-height="916"
   inkscape:window-x="0"
   inkscape:window-y="38"
   inkscape:window-maximized="0"
   inkscape:current-layer="Layer_1" />
<style
   type="text/css"
   id="style2">
	.st0{clip-path:url(#SVGID_00000119118200158028142440000006181215652328094098_);}
	.st1{fill:#7B337F;}
	.st2{fill:none;stroke:#020202;stroke-width:0.822;stroke-miterlimit:10;}
	.st3{fill:#020202;}
	.st4{fill:none;stroke:#676966;stroke-miterlimit:10;}
	.st5{fill:url(#SVGID_00000139253375913231360910000016638922204384780479_);}
	.st6{fill:#DADAD9;}
	.st7{fill:none;}
	.st8{fill:#F8F7F5;}
	.st9{fill:#463D32;}
	.st10{fill:none;stroke:#463D32;stroke-width:0.5;stroke-miterlimit:10;}
	.st11{fill:#3A322B;}
	.st12{fill:#231917;}
	.st13{fill:#716C69;}
	.st14{fill:#46413F;}
	.st15{fill:#BBB5AE;}
	.st16{fill:#4F453A;}
	.st17{fill:#777168;}
	.st18{fill:none;stroke:#020202;stroke-width:0.6793;stroke-miterlimit:10;}
	.st19{fill:url(#SVGID_00000180329200776233670240000010218654574431942566_);}
</style>
<path
   style="fill:#f2fff8;stroke:none;stroke-width:1.33333;fill-opacity:0.82978731"
   d="M 41.373611,57.263476 153.652,23.085276 239.84702,99.836322 221.25888,201.4715 202.97054,217.51127 105.53269,252.28908 17.217412,173.40393 Z"
   id="path1018" />
		
	
<polygon
   class="st4"
   points="242.38,99.14 153.96,20.18 41.36,57.28 17.19,173.34 105.62,252.3 219.4,209.5 "
   id="polygon76"
   style="stroke:#3c3d3b;stroke-opacity:1" />
<linearGradient
   id="SVGID_00000045604339317619855560000004017004332773906594_"
   gradientUnits="userSpaceOnUse"
   x1="41.3608"
   y1="117.6921"
   x2="242.3835"
   y2="117.6921">
	<stop
   offset="0.3621"
   style="stop-color:#58595B"
   id="stop78" />
	<stop
   offset="0.4507"
   style="stop-color:#5C5D60"
   id="stop80" />
	<stop
   offset="0.5566"
   style="stop-color:#686A6C"
   id="stop82" />
	<stop
   offset="0.6713"
   style="stop-color:#7B7D7F"
   id="stop84" />
	<stop
   offset="0.7922"
   style="stop-color:#949699"
   id="stop86" />
	<stop
   offset="0.9166"
   style="stop-color:#B6B8BA"
   id="stop88" />
	<stop
   offset="1"
   style="stop-color:#D1D3D4"
   id="stop90" />
</linearGradient>
<polygon
   style="fill:url(#SVGID_00000045604339317619855560000004017004332773906594_);"
   points="41.48,56.91 153.22,25.32   237.69,100.48 218.21,215.2 242.38,99.14 153.96,20.18 41.36,57.28 "
   id="polygon93" />
<polygon
   class="st6"
   points="105.62,252.3 200.52,216.61 191.98,223.32 "
   id="polygon95" />
<path
   id="SVGID_x5F_00000163071497664931601150000005485668777912985227_x5F_"
   class="st7"
   d="M215.4,207.35L105.6,249.43  l-85.34-77.64L43.59,57.68l109.85-34.79l86.61,77.17L215.4,207.35z" />
<text
   id="text102"><textPath
   xlink:href="#SVGID_x5F_00000163071497664931601150000005485668777912985227_x5F_"
   startOffset="60.0098%"
   id="textPath100">
<tspan
   style="fill:#515051; font-family:'MyriadPro-Regular'; font-size:3.9329px;"
   id="tspan98">IIIIIIIIIIIIIIIIIIIIIIIIIIIIIIIIIIIIIIIIIIIIIIIIIIIIIIIIIIIIIIIIIIIIIIIIIIIIIIIIIIIIIIIIIIIIIIIIIIIIIIIIIIIIIIIIIIIIIIIIIIIIIIIIIIIIIIIIIIIIIIIIIIIIIIIIIIIIIIIIIIIIIIIIIIIIIIIIIIIIIIIIIIIIIIIIIIIIIIIIIIIIIIIIIIIIIIIIIIIIIIIIIIIIIIIIIIIIIIIIIIIIIIIIIIIIIIIIIIIIIIIIIIIIIIIIIIIIIIIIIIIIIIIIIIIIIIIIIIIIIIIIIIIIIIIIIIIIIIIIIIIIIIIIIIIIIIIIIIIIIIIIIIIIIIIIIIIIIIIIIIIIIIIIIIIIIIIIIIIIIIIIIIIIIIIIIIIIIIIIIIIIIIIIIIIIIIIIIIIIIIIIIIIIIIIIIIIIIIIIIIIIIIIIIIIIIIIIIIIIIIIIIIIIIIIIIIIIIIIIIIIIIIIIIIIIIIIIIIIIIIIIIIIIIIIIIIIIIIIIIIIIIIIIIIIIIIIIIIIIIIIIIIIIIIIIIIIIIIIIIIIIIIIIIIIIIIIIIIIIIIIIIIIIIIIIIIIIIIIIIIIIIIIIIIIIIIIIIIIIIIIIIIIIIIIIIIIIIIIIIIIIIIIIIIIIIIIIIIIIIIIIIIIIIIIIIIIIIIIIIIIIIIIIIIIIIIIIIIIIIIIIIIIIIIIIIIIIIIIIIIIIIIIIIIIIIIIIIIIIII</tspan></textPath>
</text>
<g
   id="g154">
	<path
   class="st8"
   d="M210.98,212.98c0,0,1.88-3.59,5.06-7.97c2.34-3.22,5.38-6.86,8.9-9.82l10.92,8.67c0,0,0,1.22,0.25,3.46   c0,0,0.79-1.41,8.46,5.59l7.15,3.72c0,0-10.49,10.93-13.6,18.12l-6.24-5.78l0.53-1.97l-4.14-3.97c0,0-3.41-3.15-5.99-2.22   L210.98,212.98z"
   id="path104" />
	<path
   class="st9"
   d="M218.44,201.95c0,0,12.53,9.02,12.3,9.64c-0.59,1.61,3.11,3.13,3.11,3.13l-3.16,5.71   c-2.55-3.27-4.78-3.3-4.78-3.3l-12.18-8.76C213.74,208.37,217.01,203.23,218.44,201.95z"
   id="path106" />
	<polygon
   class="st9"
   points="235.23,224.06 239.39,218.91 245.81,223.43 240.71,229.9  "
   id="polygon108" />
	<line
   class="st10"
   x1="232.4"
   y1="216.61"
   x2="238.11"
   y2="220.82"
   id="line110" />
	<line
   class="st10"
   x1="233.29"
   y1="215.28"
   x2="238.99"
   y2="219.49"
   id="line112" />
	<line
   class="st10"
   x1="234.07"
   y1="214.02"
   x2="239.78"
   y2="218.24"
   id="line114" />
	<line
   class="st10"
   x1="235.26"
   y1="212.91"
   x2="240.97"
   y2="217.13"
   id="line116" />
	<line
   class="st10"
   x1="236.14"
   y1="211.92"
   x2="241.85"
   y2="216.13"
   id="line118" />
	<line
   class="st10"
   x1="237.18"
   y1="210.81"
   x2="242.89"
   y2="215.02"
   id="line120" />
	<line
   class="st10"
   x1="238.11"
   y1="209.5"
   x2="243.82"
   y2="213.71"
   id="line122" />
	<line
   class="st10"
   x1="231.88"
   y1="217.78"
   x2="237.59"
   y2="221.99"
   id="line124" />
	<line
   class="st10"
   x1="231.22"
   y1="219.12"
   x2="236.93"
   y2="223.33"
   id="line126" />
	<line
   class="st10"
   x1="230.7"
   y1="220.43"
   x2="236.41"
   y2="224.64"
   id="line128" />
	<path
   class="st11"
   d="M225.92,217.13c0,0,8.35-9.67,10.1-11.11l0.13,1.3C236.14,207.32,227.14,215.15,225.92,217.13z"
   id="path130" />
	<path
   class="st9"
   d="M223.91,196.1c0.17,0.22,12.01,9.14,12.07,8.98c0.06-0.17,0.28-0.85-0.09-1.22   c-0.55-0.54-10.92-8.67-10.92-8.67L223.91,196.1z"
   id="path132" />
	<path
   class="st9"
   d="M244.6,212.91c0,0,0.11-0.69,0.94-0.36c0.83,0.33,6.21,4.05,6.21,4.05l-1.1,1.18   C250.65,217.78,248.2,214.93,244.6,212.91z"
   id="path134" />
	<path
   class="st12"
   d="M246.52,222.67l158.95,123.04c0,0-4.21,9.09-8.87,10.42L238.98,232.8   C238.98,232.8,240.09,227.99,246.52,222.67z"
   id="path136" />
	<path
   class="st13"
   d="M253.39,216.79l156.96,123.15l-4.88,5.76L246.52,222.67C246.52,222.67,249.18,216.91,253.39,216.79z"
   id="path138" />
	<path
   class="st13"
   d="M238.98,232.8L396.6,356.13c0,0,0.02,1.23-1.3,1.12c-1.78-0.16-156.71-121.79-156.71-121.79L238.98,232.8z"
   id="path140" />
	<path
   class="st14"
   d="M252.7,216.61l3.52-3.33l156.12,122.9c0,0-0.09,1.51-2,3.77L252.7,216.61z"
   id="path142" />
	<path
   class="st12"
   d="M238.6,235.46c-0.25,0.63-0.55-2.79,1.55-5.72c2.11-2.94,9.53-13.69,16.07-16.46   C256.23,213.28,240.93,229.49,238.6,235.46z"
   id="path144" />
	<path
   class="st12"
   d="M395.31,357.25c-0.55,0.4,2.84-0.16,5.15-2.94c2.31-2.78,10.85-11.1,11.89-18.13   C412.34,336.18,400.5,353.49,395.31,357.25z"
   id="path146" />
	<path
   class="st15"
   d="M194.2,225.82l-2.5-2.83l2.32-5.78c0,0,23.45-12.85,32.43-42.77h3.82c0,0-2.33,18.29-10.31,28.6   C211.54,213.93,210.51,215.79,194.2,225.82z"
   id="path148" />
	<path
   class="st16"
   d="M191.7,223c0,0,0.52-4.87,4.87-6.72c4.34-1.85,29.89-17.56,33.71-41.83   C230.27,174.45,230.27,209.36,191.7,223z"
   id="path150" />
	<path
   class="st17"
   d="M191.98,223.32c-1.26,0.3,2.05,1.8,1.84,2.45c-0.21,0.65,16.81-7.17,26.15-22.73   C219.96,203.05,207.33,219.67,191.98,223.32z"
   id="path152" />
</g>

<radialGradient
   id="SVGID_00000113322151202926825260000017548559025098578100_"
   cx="135.8422"
   cy="59.5707"
   r="105.4825"
   gradientUnits="userSpaceOnUse">
	<stop
   offset="0.4326"
   style="stop-color:#D1D3D4"
   id="stop162" />
	<stop
   offset="0.9412"
   style="stop-color:#58595B"
   id="stop164" />
</radialGradient>
<polygon
   style="fill:url(#SVGID_00000113322151202926825260000017548559025098578100_);"
   points="57.95,55.92 150.89,33.14   213.74,86.01 149.06,42.78 "
   id="polygon167" />
<g
   id="g5658"
   style="fill:#7f1e79;fill-opacity:0.80000001"><circle
     class="st1"
     cx="35.02"
     cy="137.14999"
     r="7.73"
     id="circle10"
     clip-path="url(#clipPath4561)"
     style="fill:#7f1e79;fill-opacity:0.80000001" /><circle
     class="st1"
     cx="96.879997"
     cy="94.370003"
     r="7.73"
     id="circle14"
     clip-path="url(#clipPath4549)"
     style="fill:#7f1e79;fill-opacity:0.80000001"
     transform="translate(-2.5766652)" /><circle
     class="st1"
     cx="96.879997"
     cy="150.52"
     r="7.73"
     id="circle16"
     clip-path="url(#clipPath4543)"
     style="fill:#7f1e79;fill-opacity:0.80000001"
     transform="translate(-2.5766652)" /><circle
     class="st1"
     cx="96.879997"
     cy="207.03999"
     r="7.73"
     id="circle18"
     clip-path="url(#clipPath4537)"
     style="fill:#7f1e79;fill-opacity:0.80000001"
     transform="translate(-2.5766652)" /><circle
     class="st1"
     cx="149.22"
     cy="97.290001"
     r="7.73"
     id="circle38"
     clip-path="url(#clipPath4513)"
     style="fill:#7f1e79;fill-opacity:0.80000001"
     transform="translate(4.3666623)" /><circle
     class="st1"
     cx="149.22"
     cy="156.64999"
     r="7.73"
     id="circle40"
     clip-path="url(#clipPath4507)"
     style="fill:#7f1e79;fill-opacity:0.80000001"
     transform="translate(4.3666623)" /><circle
     class="st1"
     cx="212.87"
     cy="54.98"
     r="7.73"
     id="circle42"
     clip-path="url(#clipPath4501)"
     style="fill:#7f1e79;fill-opacity:0.80000001" /><circle
     class="st1"
     cx="212.87"
     cy="112.84"
     r="7.73"
     id="circle44"
     clip-path="url(#clipPath4495)"
     style="fill:#7f1e79;fill-opacity:0.80000001" /><circle
     class="st1"
     cx="212.87"
     cy="168.75"
     r="7.73"
     id="circle46"
     clip-path="url(#clipPath4489)"
     style="fill:#7f1e79;fill-opacity:0.80000001" /><circle
     class="st1"
     cx="35.02"
     cy="193.78999"
     r="7.73"
     id="circle12"
     clip-path="url(#clipPath4555)"
     style="fill:#7f1e79;fill-opacity:0.80000001" /></g><g
   id="g5634"
   style="stroke:#4c394a;stroke-opacity:1"><path
     style="fill:none;fill-rule:evenodd;stroke:#4c394a;stroke-width:1px;stroke-linecap:butt;stroke-linejoin:miter;stroke-opacity:1"
     d="M 159.44465,92.24656 196.1768,60.621944"
     id="path5426"
     inkscape:connector-type="polyline"
     inkscape:connector-curvature="0"
     inkscape:connection-start="#circle38"
     sodipodi:nodetypes="cc" /><path
     style="fill:none;fill-rule:evenodd;stroke:#4c394a;stroke-width:1px;stroke-linecap:butt;stroke-linejoin:miter;stroke-opacity:1;marker-end:url(#Arrow2)"
     d="M 41.288317,132.62666 88.035016,98.89334"
     id="path5098"
     inkscape:connector-type="polyline"
     inkscape:connector-curvature="0"
     inkscape:connection-start="#circle10"
     inkscape:connection-end="#circle14" /><path
     style="fill:none;fill-rule:evenodd;stroke:#4c394a;stroke-width:1px;stroke-linecap:butt;stroke-linejoin:miter;stroke-opacity:1;marker-end:url(#Arrow2)"
     d="m 100.05492,145.3557 47.78016,-42.9014"
     id="path5296"
     inkscape:connector-type="polyline"
     inkscape:connector-curvature="0"
     inkscape:connection-start="#circle16"
     inkscape:connection-end="#circle38" /><path
     style="fill:none;fill-rule:evenodd;stroke:#4c394a;stroke-width:1px;stroke-linecap:butt;stroke-linejoin:miter;stroke-opacity:1;marker-end:url(#Arrow2)"
     d="m 41.263654,189.23285 46.796025,-34.1557"
     id="path5330"
     inkscape:connector-type="polyline"
     inkscape:connector-curvature="0"
     inkscape:connection-start="#circle12"
     inkscape:connection-end="#circle16" /><path
     style="fill:none;fill-rule:evenodd;stroke:#4c394a;stroke-width:1px;stroke-linecap:butt;stroke-linejoin:miter;stroke-opacity:1;marker-end:url(#Arrow2)"
     d="M 42.563832,195.47606 86.7595,205.35392"
     id="path5338"
     inkscape:connector-type="polyline"
     inkscape:connector-curvature="0"
     inkscape:connection-start="#circle12"
     inkscape:connection-end="#circle18" /><path
     style="fill:none;fill-rule:evenodd;stroke:#4c394a;stroke-width:1px;stroke-linecap:butt;stroke-linejoin:miter;stroke-opacity:1;marker-end:url(#Arrow2)"
     d="m 161.16038,158.19582 44.1359,9.00835"
     id="path5354"
     inkscape:connector-type="polyline"
     inkscape:connector-curvature="0"
     inkscape:connection-start="#circle40"
     inkscape:connection-end="#circle46" /><path
     style="fill:none;fill-rule:evenodd;stroke:#4c394a;stroke-width:1px;stroke-linecap:butt;stroke-linejoin:miter;stroke-opacity:1;marker-end:url(#Arrow2)"
     d="m 159.8033,152.05594 46.85006,-34.62189"
     id="path5362"
     inkscape:connector-type="polyline"
     inkscape:connector-curvature="0"
     inkscape:connection-start="#circle40"
     inkscape:connection-end="#circle44" /><path
     style="fill:none;fill-rule:evenodd;stroke:#4c394a;stroke-width:1px;stroke-linecap:butt;stroke-linejoin:miter;stroke-opacity:1;marker-end:url(#Arrow2)"
     d="m 100.19306,202.03381 47.50388,-40.37763"
     id="path5406"
     inkscape:connector-type="polyline"
     inkscape:connector-curvature="0"
     inkscape:connection-start="#circle18"
     inkscape:connection-end="#circle40" /></g></svg>
