<?xml version="1.0" encoding="UTF-8" standalone="no"?>
<!-- Created with Inkscape (http://www.inkscape.org/) -->

<svg
   version="1.1"
   id="svg2"
   width="395.70969"
   height="337.74844"
   viewBox="0 0 395.70968 337.74844"
   sodipodi:docname="motile_plain.pdf"
   xmlns:inkscape="http://www.inkscape.org/namespaces/inkscape"
   xmlns:sodipodi="http://sodipodi.sourceforge.net/DTD/sodipodi-0.dtd"
   xmlns="http://www.w3.org/2000/svg"
   xmlns:svg="http://www.w3.org/2000/svg">
  <defs
     id="defs6">
    <linearGradient
       x1="41.360802"
       y1="117.6921"
       x2="242.3835"
       y2="117.6921"
       gradientUnits="userSpaceOnUse"
       gradientTransform="scale(0.75)"
       spreadMethod="pad"
       id="linearGradient92">
      <stop
         style="stop-opacity:1;stop-color:#58595b"
         offset="0"
         id="stop76" />
      <stop
         style="stop-opacity:1;stop-color:#58595b"
         offset="0.3621"
         id="stop78" />
      <stop
         style="stop-opacity:1;stop-color:#5c5d60"
         offset="0.4507"
         id="stop80" />
      <stop
         style="stop-opacity:1;stop-color:#686a6c"
         offset="0.5566"
         id="stop82" />
      <stop
         style="stop-opacity:1;stop-color:#7b7d7f"
         offset="0.6713"
         id="stop84" />
      <stop
         style="stop-opacity:1;stop-color:#949699"
         offset="0.7922"
         id="stop86" />
      <stop
         style="stop-opacity:1;stop-color:#b6b8ba"
         offset="0.9166"
         id="stop88" />
      <stop
         style="stop-opacity:1;stop-color:#d1d3d4"
         offset="1"
         id="stop90" />
    </linearGradient>
    <radialGradient
       fx="135.84219"
       fy="59.570702"
       cx="135.84219"
       cy="59.570702"
       r="105.4825"
       gradientUnits="userSpaceOnUse"
       gradientTransform="scale(0.75)"
       spreadMethod="pad"
       id="radialGradient186">
      <stop
         style="stop-opacity:1;stop-color:#d1d3d4"
         offset="0"
         id="stop178" />
      <stop
         style="stop-opacity:1;stop-color:#d1d3d4"
         offset="0.4326"
         id="stop180" />
      <stop
         style="stop-opacity:1;stop-color:#58595b"
         offset="0.9412"
         id="stop182" />
      <stop
         style="stop-opacity:1;stop-color:#58595b"
         offset="1"
         id="stop184" />
    </radialGradient>
    <clipPath
       clipPathUnits="userSpaceOnUse"
       id="clipPath196">
      <path
         d="M 12,15 H 182 V 190 H 12 Z"
         id="path194" />
    </clipPath>
    <clipPath
       clipPathUnits="userSpaceOnUse"
       id="clipPath202">
      <path
         d="m 30.977,42.891 -18.129,87.047 66.316,59.226 85.34,-32.098 17.234,-82.769 -66.32,-59.223 z"
         id="path200" />
    </clipPath>
    <clipPath
       clipPathUnits="userSpaceOnUse"
       id="clipPath210">
      <path
         d="M 0,0 H 136101 V 102742 H 0 Z"
         id="path208" />
    </clipPath>
    <clipPath
       clipPathUnits="userSpaceOnUse"
       id="clipPath226">
      <path
         d="M 10,15 H 180 V 190 H 10 Z"
         id="path224" />
    </clipPath>
    <clipPath
       clipPathUnits="userSpaceOnUse"
       id="clipPath232">
      <path
         d="M 29.043,42.891 10.914,129.938 77.23,189.164 162.574,157.066 179.809,74.297 113.484,15.074 Z"
         id="path230" />
    </clipPath>
    <clipPath
       clipPathUnits="userSpaceOnUse"
       id="clipPath240">
      <path
         d="M 0,0 H 136101 V 102742 H 0 Z"
         id="path238" />
    </clipPath>
    <clipPath
       clipPathUnits="userSpaceOnUse"
       id="clipPath256">
      <path
         d="M 0,0 H 136101 V 102742 H 0 Z"
         id="path254" />
    </clipPath>
    <clipPath
       clipPathUnits="userSpaceOnUse"
       id="clipPath272">
      <path
         d="M 0,0 H 136101 V 102742 H 0 Z"
         id="path270" />
    </clipPath>
    <clipPath
       clipPathUnits="userSpaceOnUse"
       id="clipPath288">
      <path
         d="M 16,15 H 186 V 190 H 16 Z"
         id="path286" />
    </clipPath>
    <clipPath
       clipPathUnits="userSpaceOnUse"
       id="clipPath294">
      <path
         d="m 34.25,42.891 -18.129,87.047 66.317,59.226 85.343,-32.098 17.235,-82.769 -66.325,-59.223 z"
         id="path292" />
    </clipPath>
    <clipPath
       clipPathUnits="userSpaceOnUse"
       id="clipPath302">
      <path
         d="M 0,0 H 136101 V 102742 H 0 Z"
         id="path300" />
    </clipPath>
    <clipPath
       clipPathUnits="userSpaceOnUse"
       id="clipPath318">
      <path
         d="M 0,0 H 136101 V 102742 H 0 Z"
         id="path316" />
    </clipPath>
    <clipPath
       clipPathUnits="userSpaceOnUse"
       id="clipPath334">
      <path
         d="M 12,15 H 182 V 190 H 12 Z"
         id="path332" />
    </clipPath>
    <clipPath
       clipPathUnits="userSpaceOnUse"
       id="clipPath340">
      <path
         d="m 30.977,42.891 -18.129,87.047 66.316,59.226 85.34,-32.098 17.234,-82.769 -66.32,-59.223 z"
         id="path338" />
    </clipPath>
    <clipPath
       clipPathUnits="userSpaceOnUse"
       id="clipPath348">
      <path
         d="M 0,0 H 136101 V 102742 H 0 Z"
         id="path346" />
    </clipPath>
    <clipPath
       clipPathUnits="userSpaceOnUse"
       id="clipPath364">
      <path
         d="M 0,0 H 136101 V 102742 H 0 Z"
         id="path362" />
    </clipPath>
    <clipPath
       clipPathUnits="userSpaceOnUse"
       id="clipPath380">
      <path
         d="M 0,0 H 136101 V 102742 H 0 Z"
         id="path378" />
    </clipPath>
    <clipPath
       clipPathUnits="userSpaceOnUse"
       id="clipPath396">
      <path
         d="M 0,0 H 136101 V 102742 H 0 Z"
         id="path394" />
    </clipPath>
  </defs>
  <sodipodi:namedview
     id="namedview4"
     pagecolor="#ffffff"
     bordercolor="#000000"
     borderopacity="0.25"
     inkscape:showpageshadow="2"
     inkscape:pageopacity="0.0"
     inkscape:pagecheckerboard="0"
     inkscape:deskcolor="#d1d1d1"
     showgrid="false" />
  <g
     id="g10"
     inkscape:groupmode="layer"
     inkscape:label="Page 1"
     transform="matrix(1.3333333,0,0,1.3333333,-16.63964,-19.617444)">
    <g
       id="g12">
      <path
         d="m 31.031,42.949 84.207,-25.637 64.649,57.567 -13.942,76.226 -13.718,12.028 -73.079,26.086 -66.234,-59.164 z"
         style="fill:#f2fff8;fill-opacity:0.829787;fill-rule:nonzero;stroke:none"
         id="path14" />
      <g
         id="g16">
        <path
           d="M 181.785,74.355 115.469,15.137 31.02,42.961 l -18.129,87.043 66.324,59.223 85.336,-32.102 z"
           style="fill:none;stroke:#3c3d3b;stroke-width:0.75;stroke-linecap:butt;stroke-linejoin:miter;stroke-miterlimit:10;stroke-dasharray:none;stroke-opacity:1"
           id="path18" />
      </g>
      <g
         id="g20">
        <path
           d="M 119.582,69.184 147.133,45.465"
           style="fill:none;stroke:#4c394a;stroke-width:0.75;stroke-linecap:butt;stroke-linejoin:miter;stroke-miterlimit:4;stroke-dasharray:none;stroke-opacity:1"
           id="path22" />
      </g>
      <g
         id="g24">
        <path
           d="M 30.965,99.469 66.027,74.172"
           style="fill:none;stroke:#4c394a;stroke-width:0.75;stroke-linecap:butt;stroke-linejoin:miter;stroke-miterlimit:4;stroke-dasharray:none;stroke-opacity:1"
           id="path26" />
      </g>
      <path
         d="m 60.906,75.277 5.91,-1.679 -3.453,5.086 c 0.137,-1.61 -0.886,-3.028 -2.457,-3.407 z"
         style="fill:#4c394a;fill-opacity:1;fill-rule:evenodd;stroke:none"
         id="path28" />
      <g
         id="g30">
        <path
           d="M 75.043,109.016 110.875,76.84"
           style="fill:none;stroke:#4c394a;stroke-width:0.75;stroke-linecap:butt;stroke-linejoin:miter;stroke-miterlimit:4;stroke-dasharray:none;stroke-opacity:1"
           id="path32" />
      </g>
      <path
         d="m 105.902,78.484 5.7,-2.296 -2.895,5.421 c -0.035,-1.609 -1.203,-2.91 -2.805,-3.125 z"
         style="fill:#4c394a;fill-opacity:1;fill-rule:evenodd;stroke:none"
         id="path34" />
      <g
         id="g36">
        <path
           d="M 30.949,141.926 66.043,116.309"
           style="fill:none;stroke:#4c394a;stroke-width:0.75;stroke-linecap:butt;stroke-linejoin:miter;stroke-miterlimit:4;stroke-dasharray:none;stroke-opacity:1"
           id="path38" />
      </g>
      <path
         d="m 60.93,117.441 5.902,-1.707 -3.426,5.098 c 0.125,-1.605 -0.902,-3.016 -2.476,-3.391 z"
         style="fill:#4c394a;fill-opacity:1;fill-rule:evenodd;stroke:none"
         id="path40" />
      <g
         id="g42">
        <path
           d="m 31.922,146.605 33.148,7.411"
           style="fill:none;stroke:#4c394a;stroke-width:0.75;stroke-linecap:butt;stroke-linejoin:miter;stroke-miterlimit:4;stroke-dasharray:none;stroke-opacity:1"
           id="path44" />
      </g>
      <path
         d="m 60.844,150.918 5.176,3.309 -6.094,0.793 c 1.293,-0.965 1.676,-2.672 0.918,-4.102 z"
         style="fill:#4c394a;fill-opacity:1;fill-rule:evenodd;stroke:none"
         id="path46" />
      <g
         id="g48">
        <path
           d="m 120.871,118.648 33.102,6.754"
           style="fill:none;stroke:#4c394a;stroke-width:0.75;stroke-linecap:butt;stroke-linejoin:miter;stroke-miterlimit:4;stroke-dasharray:none;stroke-opacity:1"
           id="path50" />
      </g>
      <path
         d="m 149.688,122.387 5.238,3.211 -6.078,0.902 c 1.273,-0.988 1.625,-2.699 0.84,-4.113 z"
         style="fill:#4c394a;fill-opacity:1;fill-rule:evenodd;stroke:none"
         id="path52" />
      <g
         id="g54">
        <path
           d="M 119.852,114.043 154.988,88.074"
           style="fill:none;stroke:#4c394a;stroke-width:0.75;stroke-linecap:butt;stroke-linejoin:miter;stroke-miterlimit:4;stroke-dasharray:none;stroke-opacity:1"
           id="path56" />
      </g>
      <path
         d="m 149.883,89.238 5.89,-1.742 -3.394,5.121 c 0.117,-1.609 -0.922,-3.015 -2.496,-3.379 z"
         style="fill:#4c394a;fill-opacity:1;fill-rule:evenodd;stroke:none"
         id="path58" />
      <g
         id="g60">
        <path
           d="m 75.145,151.523 35.628,-30.281"
           style="fill:none;stroke:#4c394a;stroke-width:0.75;stroke-linecap:butt;stroke-linejoin:miter;stroke-miterlimit:4;stroke-dasharray:none;stroke-opacity:1"
           id="path62" />
      </g>
      <path
         d="m 105.754,122.75 5.762,-2.141 -3.039,5.34 c 0.007,-1.609 -1.125,-2.941 -2.723,-3.199 z"
         style="fill:#4c394a;fill-opacity:1;fill-rule:evenodd;stroke:none"
         id="path64" />
      <g
         id="g66">
        <g
           id="g68">
          <g
             id="g74">
            <path
               d="m 31.109,42.684 83.805,-23.696 63.352,56.371 -14.61,86.039 L 181.785,74.355 115.469,15.137 31.02,42.961 Z"
               style="fill:url(#linearGradient92);stroke:none"
               id="path94" />
          </g>
        </g>
      </g>
      <path
         d="m 79.215,189.227 71.176,-26.77 -6.407,5.031 z"
         style="fill:#dadad9;fill-opacity:1;fill-rule:nonzero;stroke:none"
         id="path96" />
      <path
         d="m 158.234,159.734 c 0,0 1.411,-2.691 3.797,-5.976 1.754,-2.414 4.035,-5.145 6.672,-7.367 l 8.192,6.504 c 0,0 0,0.914 0.187,2.593 0,0 0.594,-1.054 6.344,4.196 l 5.363,2.789 c 0,0 -7.867,8.199 -10.199,13.589 l -4.68,-4.335 0.399,-1.477 -3.106,-2.977 c 0,0 -2.558,-2.363 -4.492,-1.664 z"
         style="fill:#f8f7f5;fill-opacity:1;fill-rule:nonzero;stroke:none"
         id="path98" />
      <path
         d="m 163.828,151.461 c 0,0 9.399,6.766 9.227,7.23 -0.442,1.207 2.332,2.348 2.332,2.348 l -2.371,4.285 c -1.911,-2.453 -3.582,-2.476 -3.582,-2.476 l -9.137,-6.571 c 0.008,0 2.461,-3.855 3.531,-4.816 z"
         style="fill:#463d32;fill-opacity:1;fill-rule:nonzero;stroke:none"
         id="path100" />
      <path
         d="m 176.422,168.047 3.121,-3.863 4.816,3.39 -3.828,4.852 z"
         style="fill:#463d32;fill-opacity:1;fill-rule:nonzero;stroke:none"
         id="path102" />
      <g
         id="g104">
        <path
           d="m 174.301,162.457 4.281,3.156"
           style="fill:none;stroke:#463d32;stroke-width:0.375;stroke-linecap:butt;stroke-linejoin:miter;stroke-miterlimit:10;stroke-dasharray:none;stroke-opacity:1"
           id="path106" />
      </g>
      <g
         id="g108">
        <path
           d="m 174.969,161.461 4.273,3.156"
           style="fill:none;stroke:#463d32;stroke-width:0.375;stroke-linecap:butt;stroke-linejoin:miter;stroke-miterlimit:10;stroke-dasharray:none;stroke-opacity:1"
           id="path110" />
      </g>
      <g
         id="g112">
        <path
           d="m 175.551,160.516 4.285,3.164"
           style="fill:none;stroke:#463d32;stroke-width:0.375;stroke-linecap:butt;stroke-linejoin:miter;stroke-miterlimit:10;stroke-dasharray:none;stroke-opacity:1"
           id="path114" />
      </g>
      <g
         id="g116">
        <path
           d="m 176.445,159.684 4.282,3.164"
           style="fill:none;stroke:#463d32;stroke-width:0.375;stroke-linecap:butt;stroke-linejoin:miter;stroke-miterlimit:10;stroke-dasharray:none;stroke-opacity:1"
           id="path118" />
      </g>
      <g
         id="g120">
        <path
           d="m 177.105,158.941 4.282,3.157"
           style="fill:none;stroke:#463d32;stroke-width:0.375;stroke-linecap:butt;stroke-linejoin:miter;stroke-miterlimit:10;stroke-dasharray:none;stroke-opacity:1"
           id="path122" />
      </g>
      <g
         id="g124">
        <path
           d="m 177.887,158.109 4.281,3.157"
           style="fill:none;stroke:#463d32;stroke-width:0.375;stroke-linecap:butt;stroke-linejoin:miter;stroke-miterlimit:10;stroke-dasharray:none;stroke-opacity:1"
           id="path126" />
      </g>
      <g
         id="g128">
        <path
           d="m 178.582,157.125 4.281,3.156"
           style="fill:none;stroke:#463d32;stroke-width:0.375;stroke-linecap:butt;stroke-linejoin:miter;stroke-miterlimit:10;stroke-dasharray:none;stroke-opacity:1"
           id="path130" />
      </g>
      <g
         id="g132">
        <path
           d="m 173.91,163.336 4.281,3.156"
           style="fill:none;stroke:#463d32;stroke-width:0.375;stroke-linecap:butt;stroke-linejoin:miter;stroke-miterlimit:10;stroke-dasharray:none;stroke-opacity:1"
           id="path134" />
      </g>
      <g
         id="g136">
        <path
           d="m 173.414,164.34 4.285,3.156"
           style="fill:none;stroke:#463d32;stroke-width:0.375;stroke-linecap:butt;stroke-linejoin:miter;stroke-miterlimit:10;stroke-dasharray:none;stroke-opacity:1"
           id="path138" />
      </g>
      <g
         id="g140">
        <path
           d="m 173.023,165.324 4.286,3.156"
           style="fill:none;stroke:#463d32;stroke-width:0.375;stroke-linecap:butt;stroke-linejoin:miter;stroke-miterlimit:10;stroke-dasharray:none;stroke-opacity:1"
           id="path142" />
      </g>
      <path
         d="m 169.441,162.848 c 0,0 6.262,-7.254 7.575,-8.332 l 0.097,0.972 c -0.008,0 -6.758,5.875 -7.672,7.36 z"
         style="fill:#3a322b;fill-opacity:1;fill-rule:nonzero;stroke:none"
         id="path144" />
      <path
         d="m 167.934,147.074 c 0.125,0.164 9.007,6.856 9.05,6.735 0.047,-0.125 0.211,-0.637 -0.066,-0.914 -0.414,-0.407 -8.191,-6.504 -8.191,-6.504 z"
         style="fill:#463d32;fill-opacity:1;fill-rule:nonzero;stroke:none"
         id="path146" />
      <path
         d="m 183.449,159.684 c 0,0 0.082,-0.52 0.707,-0.27 0.621,0.246 4.656,3.035 4.656,3.035 l -0.824,0.887 c 0,0 -1.84,-2.137 -4.539,-3.652 z"
         style="fill:#463d32;fill-opacity:1;fill-rule:nonzero;stroke:none"
         id="path148" />
      <path
         d="m 184.891,167.004 119.211,92.277 c 0,0 -3.157,6.821 -6.653,7.817 L 179.234,174.602 c 0,0 0.832,-3.61 5.657,-7.598 z"
         style="fill:#231917;fill-opacity:1;fill-rule:nonzero;stroke:none"
         id="path150" />
      <path
         d="m 190.043,162.594 117.719,92.359 -3.66,4.32 -119.211,-92.269 c 0,0 1.996,-4.32 5.152,-4.41 z"
         style="fill:#716c69;fill-opacity:1;fill-rule:nonzero;stroke:none"
         id="path152" />
      <path
         d="m 179.234,174.602 118.215,92.496 c 0,0 0.016,0.922 -0.972,0.84 -1.336,-0.122 -117.536,-91.344 -117.536,-91.344 z"
         style="fill:#716c69;fill-opacity:1;fill-rule:nonzero;stroke:none"
         id="path154" />
      <path
         d="m 189.523,162.457 2.641,-2.496 117.09,92.176 c 0,0 -0.066,1.129 -1.5,2.824 z"
         style="fill:#46413f;fill-opacity:1;fill-rule:nonzero;stroke:none"
         id="path156" />
      <path
         d="m 178.949,176.594 c -0.187,0.472 -0.41,-2.09 1.164,-4.289 1.582,-2.203 7.149,-10.266 12.051,-12.344 0.008,0 -11.465,12.156 -13.215,16.633 z"
         style="fill:#231917;fill-opacity:1;fill-rule:nonzero;stroke:none"
         id="path158" />
      <path
         d="m 296.484,267.938 c -0.414,0.3 2.129,-0.122 3.86,-2.204 1.734,-2.086 8.14,-8.328 8.918,-13.597 -0.008,0 -8.887,12.98 -12.778,15.801 z"
         style="fill:#231917;fill-opacity:1;fill-rule:nonzero;stroke:none"
         id="path160" />
      <path
         d="m 145.648,169.363 -1.875,-2.121 1.743,-4.336 c 0,0 17.586,-9.636 24.32,-32.078 h 2.867 c 0,0 -1.75,13.719 -7.734,21.453 -6.313,8.168 -7.086,9.563 -19.321,17.082 z"
         style="fill:#bbb5ae;fill-opacity:1;fill-rule:nonzero;stroke:none"
         id="path162" />
      <path
         d="m 143.773,167.25 c 0,0 0.391,-3.652 3.653,-5.039 3.258,-1.387 22.418,-13.172 25.285,-31.375 -0.008,0 -0.008,26.184 -28.938,36.414 z"
         style="fill:#4f453a;fill-opacity:1;fill-rule:nonzero;stroke:none"
         id="path164" />
      <path
         d="m 143.984,167.488 c -0.945,0.227 1.539,1.352 1.379,1.84 -0.156,0.488 12.61,-5.379 19.614,-17.047 -0.008,0.008 -9.481,12.473 -20.993,15.207 z"
         style="fill:#777168;fill-opacity:1;fill-rule:nonzero;stroke:none"
         id="path166" />
      <g
         id="g168">
        <g
           id="g170">
          <g
             id="g176">
            <path
               d="M 43.461,41.941 113.168,24.855 160.305,64.508 111.797,32.086 Z"
               style="fill:url(#radialGradient186);stroke:none"
               id="path188" />
          </g>
        </g>
      </g>
    </g>
    <g
       id="g190">
      <g
         id="g192"
         clip-path="url(#clipPath196)">
        <g
           id="g198"
           clip-path="url(#clipPath202)">
          <g
             id="g204">
            <g
               id="g206" />
            <g
               id="g218">
              <g
                 clip-path="url(#clipPath210)"
                 id="g216">
                <g
                   id="g214">
                  <path
                     d="m 32.062,102.863 c 0,1.535 -0.609,3.012 -1.699,4.098 -1.086,1.09 -2.562,1.699 -4.097,1.699 -3.204,0 -5.797,-2.598 -5.797,-5.797 0,-1.539 0.609,-3.011 1.695,-4.101 1.09,-1.086 2.563,-1.696 4.102,-1.696 3.203,0 5.796,2.594 5.796,5.797 z"
                     style="fill:#7b337f;fill-opacity:0.8;fill-rule:nonzero;stroke:none"
                     id="path212" />
                </g>
              </g>
            </g>
          </g>
        </g>
      </g>
    </g>
    <g
       id="g220">
      <g
         id="g222"
         clip-path="url(#clipPath226)">
        <g
           id="g228"
           clip-path="url(#clipPath232)">
          <g
             id="g234">
            <g
               id="g236" />
            <g
               id="g248">
              <g
                 clip-path="url(#clipPath240)"
                 id="g246">
                <g
                   id="g244">
                  <path
                     d="m 76.523,70.777 c 0,1.539 -0.609,3.012 -1.695,4.102 -1.09,1.086 -2.562,1.695 -4.101,1.695 -3.2,0 -5.797,-2.594 -5.797,-5.797 0,-1.539 0.609,-3.011 1.699,-4.097 1.086,-1.09 2.562,-1.7 4.098,-1.7 1.539,0 3.011,0.61 4.101,1.7 1.086,1.086 1.695,2.558 1.695,4.097 z"
                     style="fill:#7b337f;fill-opacity:0.8;fill-rule:nonzero;stroke:none"
                     id="path242" />
                </g>
              </g>
            </g>
          </g>
          <g
             id="g250">
            <g
               id="g252" />
            <g
               id="g264">
              <g
                 clip-path="url(#clipPath256)"
                 id="g262">
                <g
                   id="g260">
                  <path
                     d="m 76.523,112.891 c 0,1.535 -0.609,3.011 -1.695,4.097 -1.09,1.09 -2.562,1.7 -4.101,1.7 -1.536,0 -3.012,-0.61 -4.098,-1.7 -1.09,-1.086 -1.699,-2.562 -1.699,-4.097 0,-3.203 2.597,-5.797 5.797,-5.797 1.539,0 3.011,0.609 4.101,1.695 1.086,1.09 1.695,2.563 1.695,4.102 z"
                     style="fill:#7b337f;fill-opacity:0.8;fill-rule:nonzero;stroke:none"
                     id="path258" />
                </g>
              </g>
            </g>
          </g>
          <g
             id="g266">
            <g
               id="g268" />
            <g
               id="g280">
              <g
                 clip-path="url(#clipPath272)"
                 id="g278">
                <g
                   id="g276">
                  <path
                     d="m 76.523,155.281 c 0,1.535 -0.609,3.012 -1.695,4.098 -1.09,1.086 -2.562,1.699 -4.101,1.699 -3.2,0 -5.797,-2.598 -5.797,-5.797 0,-1.539 0.609,-3.011 1.699,-4.101 1.086,-1.086 2.562,-1.696 4.098,-1.696 1.539,0 3.011,0.61 4.101,1.696 1.086,1.09 1.695,2.562 1.695,4.101 z"
                     style="fill:#7b337f;fill-opacity:0.8;fill-rule:nonzero;stroke:none"
                     id="path274" />
                </g>
              </g>
            </g>
          </g>
        </g>
      </g>
    </g>
    <g
       id="g282">
      <g
         id="g284"
         clip-path="url(#clipPath288)">
        <g
           id="g290"
           clip-path="url(#clipPath294)">
          <g
             id="g296">
            <g
               id="g298" />
            <g
               id="g310">
              <g
                 clip-path="url(#clipPath302)"
                 id="g308">
                <g
                   id="g306">
                  <path
                     d="m 120.988,72.969 c 0,3.199 -2.597,5.797 -5.797,5.797 -3.203,0 -5.8,-2.598 -5.8,-5.797 0,-1.539 0.613,-3.012 1.699,-4.102 1.09,-1.086 2.562,-1.695 4.101,-1.695 3.2,0 5.797,2.594 5.797,5.797 z"
                     style="fill:#7b337f;fill-opacity:0.8;fill-rule:nonzero;stroke:none"
                     id="path304" />
                </g>
              </g>
            </g>
          </g>
          <g
             id="g312">
            <g
               id="g314" />
            <g
               id="g326">
              <g
                 clip-path="url(#clipPath318)"
                 id="g324">
                <g
                   id="g322">
                  <path
                     d="m 120.988,117.488 c 0,1.535 -0.613,3.012 -1.699,4.098 -1.086,1.09 -2.562,1.699 -4.098,1.699 -3.203,0 -5.8,-2.597 -5.8,-5.797 0,-1.539 0.613,-3.011 1.699,-4.101 1.09,-1.086 2.562,-1.696 4.101,-1.696 3.2,0 5.797,2.594 5.797,5.797 z"
                     style="fill:#7b337f;fill-opacity:0.8;fill-rule:nonzero;stroke:none"
                     id="path320" />
                </g>
              </g>
            </g>
          </g>
        </g>
      </g>
    </g>
    <g
       id="g328">
      <g
         id="g330"
         clip-path="url(#clipPath334)">
        <g
           id="g336"
           clip-path="url(#clipPath340)">
          <g
             id="g342">
            <g
               id="g344" />
            <g
               id="g356">
              <g
                 clip-path="url(#clipPath348)"
                 id="g354">
                <g
                   id="g352">
                  <path
                     d="m 165.449,41.234 c 0,3.204 -2.594,5.797 -5.797,5.797 -1.539,0 -3.011,-0.609 -4.097,-1.695 -1.09,-1.09 -1.7,-2.563 -1.7,-4.102 0,-3.203 2.594,-5.796 5.797,-5.796 1.539,0 3.012,0.609 4.098,1.699 1.09,1.086 1.699,2.562 1.699,4.097 z"
                     style="fill:#7b337f;fill-opacity:0.8;fill-rule:nonzero;stroke:none"
                     id="path350" />
                </g>
              </g>
            </g>
          </g>
          <g
             id="g358">
            <g
               id="g360" />
            <g
               id="g372">
              <g
                 clip-path="url(#clipPath364)"
                 id="g370">
                <g
                   id="g368">
                  <path
                     d="m 165.449,84.629 c 0,3.203 -2.594,5.797 -5.797,5.797 -1.539,0 -3.011,-0.61 -4.097,-1.696 -1.09,-1.089 -1.7,-2.562 -1.7,-4.101 0,-3.199 2.594,-5.797 5.797,-5.797 1.539,0 3.012,0.609 4.098,1.699 1.09,1.086 1.699,2.563 1.699,4.098 z"
                     style="fill:#7b337f;fill-opacity:0.8;fill-rule:nonzero;stroke:none"
                     id="path366" />
                </g>
              </g>
            </g>
          </g>
          <g
             id="g374">
            <g
               id="g376" />
            <g
               id="g388">
              <g
                 clip-path="url(#clipPath380)"
                 id="g386">
                <g
                   id="g384">
                  <path
                     d="m 165.449,126.562 c 0,3.204 -2.594,5.797 -5.797,5.797 -3.203,0 -5.797,-2.593 -5.797,-5.797 0,-3.203 2.594,-5.796 5.797,-5.796 3.203,0 5.797,2.593 5.797,5.796 z"
                     style="fill:#7b337f;fill-opacity:0.8;fill-rule:nonzero;stroke:none"
                     id="path382" />
                </g>
              </g>
            </g>
          </g>
          <g
             id="g390">
            <g
               id="g392" />
            <g
               id="g404">
              <g
                 clip-path="url(#clipPath396)"
                 id="g402">
                <g
                   id="g400">
                  <path
                     d="m 32.062,145.344 c 0,1.535 -0.609,3.011 -1.699,4.097 -1.086,1.086 -2.562,1.7 -4.097,1.7 -3.204,0 -5.797,-2.598 -5.797,-5.797 0,-1.539 0.609,-3.012 1.695,-4.102 1.09,-1.086 2.563,-1.695 4.102,-1.695 3.203,0 5.796,2.594 5.796,5.797 z"
                     style="fill:#7b337f;fill-opacity:0.8;fill-rule:nonzero;stroke:none"
                     id="path398" />
                </g>
              </g>
            </g>
          </g>
        </g>
      </g>
    </g>
  </g>
</svg>
